# xmcd
#
# Track frame offsets:
#        150
#        12432
#        26855
#        40395
#        54537
#        67657
#        79772
#        94722
#        106940
#        119547
#        132467
#        146440
#        159737
#        171930
#        184855
#        198080
#        211087
#        225585
#        238145
#        252310
#        264662
#        282702
#        295040
#        308347
#
# Disc length: 4472 seconds
#
# Revision: 5
# Processed by: cddbd v1.5.2PL0 Copyright (c) Steve Scherf et al.
# Submitted via: ExactAudioCopy v0.99pb5
#
DISCID=59117618
DTITLE=Muddy Waters - The Definitive Collection (Remastered)
DYEAR=2006
DGENRE=Blues
TTITLE0=I Can't Be Satisfied
TTITLE1=I Feel Like Going Home
TTITLE2=Rollin' and Tumblin', Part One
TTITLE3=Rollin' Stone
TTITLE4=Louisiana Blues
TTITLE5=Long Distance Call
TTITLE6=Still A Fool
TTITLE7=Turn Your Lamp Down Low (Baby Please Don't Go)
TTITLE8=(I'm Your) Hoochie Coochie Man
TTITLE9=I Just Want To Make Love To You
TTITLE10=I'm Ready
TTITLE11=Mannish Boy
TTITLE12=Trouble No More
TTITLE13=Forty Days And Forty Nights
TTITLE14=Don't Go No Farther
TTITLE15=Got My Mojo Working
TTITLE16=Rock Me
TTITLE17=Walkin' Thru The Park
TTITLE18=Take The Bitter With The Sweet
TTITLE19=You Shook Me
TTITLE20=My Home Is In The Delta
TTITLE21=The Same Thing
TTITLE22=You Can't Lose What You Ain't Never Had
TTITLE23=Crosseyed Cat
EXTD=
EXTT0=
EXTT1=
EXTT2=
EXTT3=
EXTT4=
EXTT5=
EXTT6=
EXTT7=
EXTT8=
EXTT9=
EXTT10=
EXTT11=
EXTT12=
EXTT13=
EXTT14=
EXTT15=
EXTT16=
EXTT17=
EXTT18=
EXTT19=
EXTT20=
EXTT21=
EXTT22=
EXTT23=
PLAYORDER=
